{"title":"Skyscraper 2018 720p BRRip x264 ESub [MW]","magnet":"magnet:?xt=urn:btih:e8ad9102d52413fb8a0c661fd5d6f496f8f43d08&dn=Skyscraper+2018+720p+BRRip+x264+ESub+%5BMW%5D&tr=udp%3A%2F%2Ftracker.leechers-paradise.org%3A6969&tr=udp%3A%2F%2Fzer0day.ch%3A1337&tr=udp%3A%2F%2Fopen.demonii.com%3A1337&tr=udp%3A%2F%2Ftracker.coppersurfer.tk%3A6969&tr=udp%3A%2F%2Fexodus.desync.com%3A6969","uploader":"MFreaky","categoryP":"video","categoryS":"hd___movies","size":"1072681833","seeders":"3","leechers":"5","description":" <a href=\"https://pichub.site/image/EXG3V\" rel=\"nofollow\" target=\"_NEW\">https://pichub.site/image/EXG3V</a> <a href=\"\nhttps://pichub.site/image/EXuu0\" rel=\"nofollow\" target=\"_NEW\">\nhttps://pichub.site/image/EXuu0</a> <a href=\"\nhttps://pichub.site/image/EXUaT\" rel=\"nofollow\" target=\"_NEW\">\nhttps://pichub.site/image/EXUaT</a> <a href=\"\nhttps://pichub.site/image/EXv8N\" rel=\"nofollow\" target=\"_NEW\">\nhttps://pichub.site/image/EXv8N</a> <a href=\"\nhttps://pichub.site/image/EXxlD\" rel=\"nofollow\" target=\"_NEW\">\nhttps://pichub.site/image/EXxlD</a>\r\n\r\nIMDB <a href=\"\nhttps://www.imdb.com/title/tt5758778/\" rel=\"nofollow\" target=\"_NEW\">\nhttps://www.imdb.com/title/tt5758778/</a>\r\n\r\nVideo\r\nFormat                                   : AVC\r\nFormat/Info                              : Advanced Video Codec\r\nFormat profile                           : High@L4.1\r\nFormat settings                          : CABAC / 4 Ref Frames\r\nFormat settings, CABAC                   : Yes\r\nFormat settings, RefFrames               : 4 frames\r\nCodec ID                                 : V_MPEG4/ISO/AVC\r\nDuration                                 : 1 h 42 min\r\nBit rate                                 : 1 200 kb/s\r\nWidth                                    : 1 280 pixels\r\nHeight                                   : 532 pixels\r\nDisplay aspect ratio                     : 2.40:1\r\nFrame rate mode                          : Constant\r\nFrame rate                               : 23.976 (24000/1001) FPS\r\nColor space                              : YUV\r\nChroma subsampling                       : 4:2:0\r\nBit depth                                : 8 bits\r\nBits/(Pixel*Frame)                       : 0.073\r\nStream size                              : 878 MiB (86%)\r\nWriting library                          : x264 core 155 r2901 7d0ff22\r\n\r\nAudio\r\nFormat                                   : AAC\r\nFormat/Info                              : Advanced Audio Codec\r\nFormat profile                           : HE-AAC / LC\r\nFormat settings                          : Explicit\r\nCodec ID                                 : A_AAC-2\r\nDuration                                 : 1 h 42 min\r\nBit rate                                 : 192 kb/s\r\nChannel(s)                               : 6 channels\r\nChannel positions                        : Front: L C R, Side: L R, LFE\r\nSampling rate                            : 48.0 kHz / 24.0 kHz\r\nFrame rate                               : 23.438 FPS (1024 SPF)\r\nStream size                              : 140 MiB (14%)\r\nLanguage                                 : English","last_updated":"2018-09-28T13:12:12.570Z","parsed":{"xt":"urn:btih:e8ad9102d52413fb8a0c661fd5d6f496f8f43d08","dn":"Skyscraper 2018 720p BRRip x264 ESub [MW]","tr":["udp://exodus.desync.com:6969","udp://open.demonii.com:1337","udp://tracker.coppersurfer.tk:6969","udp://tracker.leechers-paradise.org:6969","udp://zer0day.ch:1337"],"infoHash":"e8ad9102d52413fb8a0c661fd5d6f496f8f43d08","infoHashBuffer":{"type":"Buffer","data":[232,173,145,2,213,36,19,251,138,12,102,31,213,214,244,150,248,244,61,8]},"name":"Skyscraper 2018 720p BRRip x264 ESub [MW]","announce":["udp://exodus.desync.com:6969","udp://open.demonii.com:1337","udp://tracker.coppersurfer.tk:6969","udp://tracker.leechers-paradise.org:6969","udp://zer0day.ch:1337"],"urlList":[]}}